<?xml version="1.0" standalone="no"?>
<!DOCTYPE svg PUBLIC "-//W3C//DTD SVG 20010904//EN"
 "http://www.w3.org/TR/2001/REC-SVG-20010904/DTD/svg10.dtd">
<svg version="1.0" xmlns="http://www.w3.org/2000/svg"
 width="489.000000pt" height="489.000000pt" viewBox="0 0 489.000000 489.000000"
 preserveAspectRatio="xMidYMid meet">
<metadata>
Created by potrace 1.11, written by Peter Selinger 2001-2013
</metadata>
<g transform="translate(0.000000,489.000000) scale(0.100000,-0.100000)"
fill="#000000" stroke="none">
<path d="M2645 3943 c-439 -57 -845 -299 -1152 -685 -68 -85 -144 -204 -168
-261 l-15 -38 50 -31 c37 -23 49 -36 44 -47 -33 -79 -76 -213 -92 -291 -22
-102 -50 -332 -54 -445 l-3 -70 -58 118 c-64 130 -91 157 -162 157 -44 0 -79
-19 -117 -64 l-24 -29 -14 103 -13 103 126 121 c155 149 155 150 137 346 -39
444 -80 802 -96 836 -23 47 -55 62 -94 43 -33 -16 -473 -411 -524 -471 -60
-69 -62 -96 -42 -536 26 -582 29 -598 94 -623 39 -15 64 -5 133 56 35 30 64
53 66 52 1 -2 7 -41 12 -87 7 -67 6 -90 -5 -112 -8 -16 -14 -56 -14 -97 l0
-70 -44 -30 c-110 -76 -208 -224 -242 -366 -22 -95 -14 -307 15 -419 51 -192
162 -339 312 -411 40 -19 81 -35 91 -35 10 0 18 -9 20 -22 l3 -23 789 -3 788
-2 112 25 c104 23 112 24 124 8 6 -9 12 -20 12 -25 0 -4 66 -8 146 -8 l146 0
-7 50 c-8 56 -7 57 56 34 62 -22 217 -54 264 -54 22 0 53 -7 69 -15 19 -10 59
-15 127 -15 95 0 99 1 89 19 -5 11 -14 30 -19 43 l-9 23 277 0 c243 0 291 3
400 23 68 12 129 26 135 31 6 5 36 14 66 20 100 21 181 80 209 155 16 40 4 55
-58 72 -31 9 -59 21 -63 27 -4 6 -10 34 -13 62 -12 82 -53 197 -89 246 -19 26
-55 59 -80 75 -50 32 -87 92 -111 182 l-13 51 42 5 c22 3 64 8 91 11 78 9 112
23 144 60 64 73 75 192 41 430 -51 344 -167 687 -320 940 l-52 86 36 39 c20
22 36 47 36 55 0 20 -145 165 -249 249 -359 288 -754 439 -1136 434 -66 0
-133 -3 -150 -5z m488 -127 c119 -28 306 -98 407 -153 82 -45 210 -124 210
-129 0 -3 -9 0 -19 6 -28 14 -29 13 -26 -21 2 -24 27 -55 117 -147 114 -117
221 -253 273 -347 l27 -50 -33 40 c-58 69 -143 156 -163 167 -18 10 -17 7 4
-28 13 -22 34 -58 47 -80 18 -31 28 -41 42 -37 13 3 23 -2 30 -15 13 -24 4
-55 -12 -45 -7 4 -8 0 -3 -12 5 -14 4 -16 -7 -7 -8 7 -17 9 -20 5 -9 -9 -37
17 -37 35 0 12 4 12 22 -4 12 -10 3 5 -21 34 -41 50 -81 85 -88 78 -2 -2 23
-54 56 -117 33 -63 67 -141 76 -174 11 -38 27 -68 42 -80 26 -22 29 -63 4 -57
-9 2 -11 -6 -7 -25 9 -39 44 -297 42 -300 -1 -2 -12 4 -24 13 -14 10 -22 26
-22 44 0 53 -41 241 -75 345 -101 310 -284 528 -560 667 -164 83 -331 125
-532 135 -345 16 -627 -88 -839 -308 -88 -93 -143 -173 -204 -303 -98 -206
-128 -337 -137 -609 -3 -103 -10 -190 -14 -193 -5 -3 -9 8 -9 25 0 23 -4 29
-15 25 -20 -8 -45 13 -45 37 0 10 11 26 24 34 22 15 25 24 31 133 4 64 13 162
21 217 9 66 11 101 4 103 -16 6 -11 38 9 56 10 9 26 44 36 77 9 33 29 92 45
131 25 62 26 68 8 52 -39 -36 -92 -117 -145 -222 -50 -102 -53 -105 -53 -67 0
53 -11 38 -51 -73 -19 -52 -36 -86 -37 -77 -7 34 30 220 63 314 32 93 33 95 9
66 -14 -16 -47 -74 -73 -128 -41 -82 -48 -104 -44 -137 4 -31 2 -41 -11 -46
-9 -4 -20 -4 -23 0 -8 8 52 185 97 281 87 189 211 353 365 484 l50 42 -37 -15
c-46 -18 -146 -86 -173 -117 -11 -12 -14 -19 -7 -15 21 12 13 -15 -10 -35 -34
-27 -56 -25 -33 4 10 12 -26 -23 -81 -78 -104 -106 -94 -79 23 61 232 277 554
476 878 543 145 30 143 30 340 26 150 -3 198 -8 288 -29z m-2148 -93 c9 -24
85 -778 88 -875 l2 -78 -121 -121 c-113 -112 -123 -120 -142 -108 -24 15 -40
6 -25 -13 6 -7 18 -71 27 -143 10 -71 19 -137 22 -145 2 -10 -12 -22 -43 -37
-26 -12 -49 -20 -50 -19 -2 2 -11 77 -20 166 -15 151 -15 166 0 192 20 35 8
36 -23 3 -19 -20 -25 -40 -28 -89 l-4 -63 -72 -65 c-78 -71 -107 -86 -125 -65
-12 15 -36 406 -47 761 -5 183 -4 204 13 233 20 35 511 483 529 483 7 0 15 -8
19 -17z m2431 -782 c127 -89 240 -224 316 -376 36 -71 94 -224 87 -228 -2 -1
-29 -19 -59 -38 -91 -60 -90 -60 -127 -32 -69 53 -176 68 -266 37 -52 -17
-125 -83 -152 -134 -18 -35 -14 -34 40 6 68 51 130 74 199 74 85 0 143 -26
200 -92 l43 -50 63 106 c35 58 65 104 67 103 1 -2 12 -57 24 -123 29 -159 32
-464 6 -566 -54 -218 -203 -391 -431 -502 -388 -189 -794 -187 -1181 6 -190
96 -355 339 -441 653 -25 90 -28 117 -28 270 l-1 170 33 67 c20 41 50 82 77
106 55 48 160 104 235 125 85 24 371 89 375 85 2 -2 -14 -39 -35 -83 -22 -44
-39 -81 -40 -82 0 -2 22 -3 49 -3 92 0 363 103 478 181 127 86 275 222 351
321 20 26 39 48 42 48 4 0 38 -22 76 -49z m-1905 -451 c37 -20 15 -87 -27 -78
-9 2 -23 12 -30 23 -12 18 -11 24 2 43 17 25 27 27 55 12z m2799 -54 c6 -8 10
-25 8 -38 -2 -19 -9 -23 -38 -23 -31 0 -35 3 -38 29 -5 42 41 64 68 32z m-238
-156 c35 -69 10 -230 -51 -331 l-20 -33 7 39 c9 53 9 235 -1 308 l-7 58 27 -3
c20 -2 33 -13 45 -38z m-3009 -30 c14 -11 49 -66 77 -122 29 -57 71 -127 93
-157 l40 -55 -34 27 c-51 39 -96 54 -176 62 l-72 7 -7 42 c-6 38 -27 86 -57
129 -10 16 -7 23 25 53 43 39 74 43 111 14z m321 -129 c22 -24 14 -57 -15 -66
-28 -9 -32 -2 -24 44 8 46 14 50 39 22z m2844 -43 c4 -32 -20 -52 -53 -44 -20
5 -25 13 -25 36 0 53 72 61 78 8z m-2515 -78 c7 -87 34 -235 56 -295 19 -52
-72 57 -110 132 -51 100 -54 224 -6 243 50 20 54 16 60 -80z m-578 -87 c114
-34 218 -135 284 -273 31 -64 36 -86 39 -165 9 -196 -88 -399 -236 -494 -47
-30 -53 -31 -154 -31 -130 0 -178 -15 -253 -81 -31 -27 -64 -49 -74 -49 -29 0
-33 -13 -9 -32 41 -31 -8 -22 -55 11 -117 81 -187 213 -222 415 -8 49 -15 119
-15 156 0 143 70 318 165 416 123 126 354 181 530 127z m395 -47 c17 -22 8
-58 -18 -67 -44 -16 -77 47 -38 73 18 12 43 9 56 -6z m2570 -90 c28 -35 -11
-93 -47 -70 -36 22 -23 84 17 84 10 0 23 -7 30 -14z m-2320 -181 c23 -24 23
-25 5 -45 -23 -25 -37 -25 -60 0 -15 17 -16 24 -7 45 15 32 32 32 62 0z m100
-437 c173 -115 359 -191 543 -224 94 -17 131 -37 147 -79 18 -49 -34 -87 -145
-105 -89 -15 -284 -12 -399 5 -109 16 -273 58 -288 73 -5 5 -11 43 -13 84 -2
40 -9 94 -15 118 l-13 45 -14 -48 c-8 -27 -30 -71 -50 -98 -29 -41 -39 -48
-57 -43 -11 4 -23 8 -25 10 -2 2 6 42 19 88 19 71 21 98 16 163 -9 89 -9 154
-1 200 l6 32 102 -82 c56 -46 140 -108 187 -139z m2389 186 c44 -37 96 -152
121 -269 11 -54 23 -101 24 -103 2 -1 25 -8 52 -15 26 -7 49 -17 51 -24 7 -21
-67 -80 -122 -97 -19 -5 -20 -1 -22 53 -1 67 -30 141 -71 185 -30 32 -96 65
-129 66 -21 0 -23 5 -23 58 0 99 30 172 71 172 10 0 31 -12 48 -26z m-205
-194 c22 8 26 7 26 -10 0 -25 -27 -42 -114 -75 -57 -21 -67 -23 -62 -10 3 9 6
43 6 75 l0 58 59 -24 c46 -19 65 -22 85 -14z m-2633 -59 c-26 -69 -101 -172
-159 -217 -76 -62 -72 -60 -72 -21 0 33 6 41 78 95 56 44 89 78 122 130 25 38
46 69 48 67 2 -1 -6 -25 -17 -54z m2274 10 c83 -40 139 -77 129 -83 -5 -3 -50
-15 -99 -27 -113 -26 -283 -41 -381 -34 l-75 6 98 38 c54 21 132 59 173 83 41
24 80 44 85 45 6 0 37 -12 70 -28z m520 -52 c19 -17 35 -37 35 -43 0 -7 -17
-18 -37 -24 -36 -11 -38 -10 -75 30 -21 23 -37 43 -35 44 6 6 52 23 64 23 7 1
28 -13 48 -30z m-150 -41 c29 -13 33 -33 8 -46 -32 -17 -148 -32 -239 -31
l-89 1 130 43 c146 48 154 50 190 33z m-911 -85 c-18 -78 -42 -85 -119 -35
l-40 26 80 17 c44 9 81 17 83 18 1 1 0 -11 -4 -26z"/>
<path d="M2940 3767 l-55 -11 50 -7 c28 -5 69 -15 92 -23 22 -8 43 -13 45 -12
1 2 12 -5 22 -15 19 -19 19 -19 0 -19 -15 0 -16 -2 -5 -9 12 -8 13 -12 1 -26
-16 -20 -49 -16 -64 8 -8 14 -8 20 4 27 19 12 -125 12 -155 0 -17 -6 -13 -9
20 -15 99 -17 101 -23 9 -24 -55 -1 -112 -8 -145 -18 l-54 -17 120 -7 c139 -9
332 -46 458 -88 102 -35 115 -24 40 35 l-48 36 35 -7 c19 -4 56 -15 83 -25 26
-10 47 -15 47 -10 0 11 -75 70 -149 119 -73 47 -68 52 15 16 50 -22 55 -23 40
-6 -16 18 -62 43 -136 75 -38 16 -150 37 -190 35 -14 -1 -50 -6 -80 -12z"/>
<path d="M3480 3608 c14 -6 57 -27 95 -46 39 -19 66 -31 62 -26 -4 4 2 13 15
20 20 11 17 14 -47 32 -39 12 -88 23 -110 27 -37 5 -38 4 -15 -7z"/>
<path d="M814 3509 c-12 -14 -15 -23 -8 -26 7 -2 10 -13 7 -24 -3 -11 5 -137
18 -280 19 -215 20 -264 10 -281 -11 -18 -10 -25 7 -47 27 -37 66 -39 88 -6
22 33 21 70 -6 395 -15 168 -26 252 -36 268 -18 28 -55 28 -80 1z m61 -39 c4
-6 17 -135 30 -288 20 -242 21 -279 9 -292 -12 -12 -16 -12 -23 -2 -8 13 -52
478 -51 550 0 30 4 42 14 42 8 0 18 -5 21 -10z"/>
<path d="M638 3364 c-10 -11 -14 -29 -12 -57 2 -23 13 -154 25 -290 18 -208
19 -253 8 -273 -11 -22 -10 -27 13 -51 50 -50 98 -9 98 83 0 110 -42 541 -55
572 -16 36 -50 43 -77 16z m63 -89 c4 -28 15 -157 25 -287 14 -186 16 -240 6
-250 -7 -7 -15 -8 -21 -2 -10 11 -60 550 -53 577 3 10 12 17 21 15 11 -2 18
-18 22 -53z"/>
<path d="M484 3226 c-25 -19 -25 -32 2 -340 22 -246 22 -286 4 -286 -15 0 1
-38 25 -60 30 -28 61 -19 82 25 15 30 14 55 -6 307 -24 297 -32 342 -61 358
-24 13 -22 13 -46 -4z m46 -58 c11 -29 54 -543 46 -563 -5 -14 -36 -22 -36
-10 0 3 -11 128 -25 278 -25 264 -26 317 -5 317 6 0 15 -10 20 -22z"/>
<path d="M3330 2579 c-31 -18 -80 -74 -80 -91 0 -4 23 9 50 27 28 19 68 37 88
41 49 9 153 -18 214 -56 46 -28 47 -28 32 -5 -20 30 -74 72 -119 91 -51 21
-143 18 -185 -7z"/>
<path d="M2163 2468 c-49 -23 -117 -88 -140 -132 -14 -28 -11 -26 36 17 28 27
70 57 94 67 57 26 146 26 197 0 54 -27 59 -25 24 11 -60 63 -132 76 -211 37z"/>
<path d="M2160 2329 c-25 -11 -60 -35 -79 -52 -32 -31 -91 -138 -91 -166 0
-11 -15 -13 -77 -7 l-77 6 110 -75 109 -76 5 98 c6 114 22 151 89 198 37 26
51 30 112 30 78 0 85 -5 95 -72 6 -42 5 -44 -61 -115 -37 -40 -75 -73 -84 -73
-9 0 -24 16 -33 35 -16 32 -17 33 -17 10 0 -56 26 -246 37 -267 24 -45 138
-48 185 -5 36 32 37 56 17 254 -11 105 -17 194 -14 197 3 3 30 -20 60 -51 30
-31 54 -53 54 -50 0 20 -64 113 -96 142 -73 63 -159 77 -244 39z"/>
<path d="M3347 1899 c-122 -21 -207 -164 -207 -350 l0 -77 -47 -16 c-125 -40
-174 -48 -323 -53 -133 -4 -166 -2 -230 15 -41 11 -77 18 -79 17 -7 -7 65 -46
114 -61 236 -72 675 35 847 206 58 59 108 145 108 188 0 31 -23 83 -46 104
-26 23 -90 36 -137 27z"/>
</g>
</svg>
