<svg id="Capa_1" enable-background="new 0 0 512 512" height="512" viewBox="0 0 512 512" width="512" xmlns="http://www.w3.org/2000/svg"><g><path d="m363 482.02c63.973 0 139-51.808 139-115.716v-46.286h-278v46.286c0 63.909 75.027 115.716 139 115.716z" fill="#e2e7ef"/><path d="m10 482.02c0-11.035 8.945-19.98 19.98-19.98h452.04c11.034 0 19.98 8.945 19.98 19.98 0 11.034-8.945 19.98-19.98 19.98h-452.04c-11.035 0-19.98-8.945-19.98-19.98z" fill="#f5d996"/><path d="m10 55.287v63.44c0 11.676 9.475 21.141 21.162 21.141 8.99 0 17.025 5.668 19.977 14.151 36.424 104.677 34.711 202.169-5.139 307.522h163c-36.677-96.965-41.049-187.271-13.114-282.649 6.779-23.145 28.071-39.024 52.21-39.024h232.904c11.598 0 21-9.392 21-20.979v-63.605c0-25.01-20.295-45.284-45.33-45.284h-401.337c-25.037 0-45.333 20.276-45.333 45.287z" fill="#abe0f6"/><path d="m318 139.868h90v39.959h-90z" fill="#f5d996"/><g><path d="m408 189.828c5.522 0 10-4.477 10-10v-29.959h63c17.094 0 31-13.897 31-30.979v-63.606c0-30.484-24.821-55.284-55.33-55.284h-401.337c-30.511 0-55.333 24.802-55.333 55.287v63.44c0 17.171 13.979 31.141 31.162 31.141 4.752 0 8.985 2.989 10.533 7.437 34.843 100.137 33.949 193.968-2.856 294.735h-8.859c-16.53 0-29.98 13.45-29.98 29.98s13.45 29.98 29.98 29.98h452.04c16.53 0 29.98-13.45 29.98-29.98s-13.45-29.98-29.98-29.98h-14.5c6.37-5.4 12.21-11.2 17.41-17.34 3.56-4.21 3.04-10.53-1.17-14.1-1.8-1.52-4.1-2.37-6.46-2.37-2.94 0-5.73 1.29-7.63 3.54-9.71 11.49-22.52 21.97-36.84 30.27h-139.74c-6.07-3.52-11.92-7.47-17.42-11.79-12.72-9.95-23.2-21.68-30.3-33.92-7.54-13.01-11.37-26.48-11.37-40.03v-36.28h258v14.4c0 5.52 4.49 10.01 10 10.01 5.52 0 10-4.49 10-10.01v-24.4c0-2.63-1.07-5.21-2.93-7.07s-4.44-2.93-7.07-2.93h-84.691c-3.653-22.93-21.547-41.166-44.309-45.363v-74.829zm-10-20h-70v-19.959h70zm-337.416-19.096c-.102-.294-.229-.574-.34-.864h109.756c5.522 0 10-4.477 10-10s-4.478-10-10-10c0 0-137.596 0-138.838 0-6.155 0-11.162-4.998-11.162-11.141v-63.44c0-19.457 15.851-35.287 35.333-35.287h401.337c19.481 0 35.33 15.829 35.33 35.284v63.605c0 6.054-4.935 10.979-11 10.979h-232.903c-28.422 0-53.838 19.004-61.808 46.213-27.271 93.109-24.642 181.017 8.427 275.459h-134.434c35.867-102.54 35.898-198.509.302-300.808zm421.436 321.308c5.5 0 9.98 4.48 9.98 9.98s-4.48 9.98-9.98 9.98h-452.04c-5.5 0-9.98-4.48-9.98-9.98s4.48-9.98 9.98-9.98zm-129.02-162.02h-23.909c3.046-11.879 12.202-21.335 23.909-24.828zm43.909 0h-23.909v-24.828c11.707 3.493 20.863 12.949 23.909 24.828zm-43.909-45.363c-22.762 4.197-40.657 22.433-44.309 45.363h-84.691c-2.63 0-5.21 1.07-7.07 2.93s-2.93 4.43-2.93 7.07v46.28c0 8.72 1.26 17.5 3.74 26.1 2.36 8.16 5.84 16.22 10.33 23.97 6.42 11.03 14.83 21.42 24.99 30.86 1.76 1.64 3.57 3.25 5.42 4.81h-42.325c-34.004-93.05-37.387-179.126-10.673-270.336 5.49-18.744 23.014-31.835 42.614-31.835h59.904v29.959c0 5.523 4.478 10 10 10h35z"/><circle cx="498.794" cy="389.11" r="10"/></g></g></svg>